<?xml version="1.0" standalone="no"?>
<!DOCTYPE svg PUBLIC "-//W3C//DTD SVG 20010904//EN"
 "http://www.w3.org/TR/2001/REC-SVG-20010904/DTD/svg10.dtd">
<svg version="1.0" xmlns="http://www.w3.org/2000/svg"
 width="800.000000pt" height="800.000000pt" viewBox="0 0 800.000000 800.000000"
 preserveAspectRatio="xMidYMid meet">
<metadata>
Created by potrace 1.11, written by Peter Selinger 2001-2013
</metadata>
<g transform="translate(0.000000,800.000000) scale(0.100000,-0.100000)"
fill="#000000" stroke="none">
<path d="M3121 6866 c-8 -10 -21 -14 -33 -10 -10 3 -25 0 -33 -6 -10 -8 -15
-9 -15 -2 0 16 -43 10 -57 -8 -8 -10 -12 -11 -13 -2 0 6 -4 12 -10 12 -5 0 -9
-3 -9 -7 4 -25 -4 -34 -11 -13 l-7 25 -11 -25 c-6 -14 -11 -19 -11 -12 -1 15
-33 16 -48 1 -7 -7 -15 -5 -27 6 -12 13 -16 13 -16 3 0 -8 5 -19 10 -24 7 -7
6 -11 -5 -11 -8 0 -15 6 -15 14 0 7 -4 13 -10 13 -5 0 -10 -6 -10 -14 0 -8 -5
-16 -12 -18 -6 -2 -13 -14 -14 -25 -3 -16 2 -23 18 -25 28 -4 33 -21 12 -42
-9 -9 -14 -23 -11 -30 3 -7 1 -18 -5 -24 -5 -5 -11 -28 -13 -51 -2 -33 -1 -40
10 -31 9 8 14 5 18 -10 3 -12 0 -20 -7 -20 -7 0 -12 -15 -13 -35 0 -27 2 -33
12 -25 6 5 15 7 18 4 3 -4 -4 -15 -16 -25 -18 -14 -20 -20 -9 -30 10 -11 12
-9 12 9 0 12 4 22 9 22 6 0 8 -9 6 -20 -6 -30 -15 -41 -27 -34 -7 5 -9 0 -6
-14 4 -13 1 -22 -5 -22 -8 0 -7 -3 1 -9 8 -4 14 -12 14 -17 0 -5 4 -8 9 -6 17
4 9 -47 -8 -57 -15 -8 -15 -11 -3 -12 8 -1 18 -1 21 -1 4 1 7 -10 7 -25 0 -16
-7 -27 -19 -30 -10 -3 -15 -11 -12 -19 3 -7 0 -27 -5 -43 -9 -26 -8 -29 8 -26
22 4 22 -22 -1 -45 -24 -25 -13 -89 17 -102 13 -6 21 -15 17 -21 -3 -5 -9 -3
-15 4 -6 10 -7 4 -4 -18 3 -26 1 -31 -12 -25 -15 5 -15 4 -3 -12 13 -15 13
-19 0 -27 -12 -8 -12 -10 1 -19 10 -6 11 -10 3 -10 -7 0 -13 -4 -13 -10 0 -5
6 -7 14 -4 16 6 31 -29 21 -46 -10 -16 -21 -12 -33 13 -9 18 -10 14 -7 -27 2
-27 0 -57 -6 -67 -8 -16 -6 -17 19 -9 23 6 29 4 29 -9 0 -9 -5 -22 -11 -30 -8
-11 -8 -13 2 -7 6 4 12 2 12 -3 0 -6 -7 -11 -15 -11 -8 0 -16 -6 -17 -12 -4
-37 -2 -44 16 -61 21 -19 21 -19 -9 -35 -11 -6 -14 -12 -7 -12 6 0 12 -4 12
-9 0 -4 -11 -6 -25 -3 -14 2 -25 11 -25 18 0 8 -8 14 -17 13 -12 0 -14 -2 -5
-6 10 -4 7 -9 -8 -20 -21 -15 -35 -11 -35 10 0 14 -43 18 -51 6 -3 -5 -1 -9 4
-9 6 0 13 -7 16 -16 4 -11 -1 -10 -20 5 -21 17 -35 20 -68 15 -22 -4 -45 -10
-50 -15 -6 -5 -15 -9 -20 -9 -6 0 -5 4 3 9 8 5 -4 9 -33 9 -28 1 -44 -3 -41
-8 3 -6 2 -10 -4 -10 -5 0 -11 5 -13 10 -4 13 -78 16 -86 4 -4 -5 -25 -10 -47
-11 -31 -2 -36 0 -25 8 11 8 9 9 -10 3 -14 -4 -33 -7 -43 -6 -9 0 -15 -3 -12
-8 3 -5 -9 -5 -27 1 -43 12 -51 11 -42 -2 4 -8 -1 -9 -16 -4 -13 4 -20 3 -17
-2 4 -5 0 -10 -8 -10 -8 0 -15 4 -15 9 0 4 -13 8 -28 8 -15 0 -33 5 -38 10
-14 14 -68 -6 -58 -21 5 -9 -4 -10 -32 -4 -21 5 -50 8 -64 7 -61 -4 -75 -3
-78 7 -2 6 -8 11 -13 11 -6 0 -7 -4 -4 -10 3 -5 0 -10 -7 -10 -9 0 -9 -3 2
-10 13 -9 13 -10 -1 -10 -8 0 -24 7 -35 15 -25 19 -48 19 -41 1 5 -12 0 -12
-26 -5 -21 6 -33 5 -38 -2 -5 -8 -16 -7 -38 4 -17 9 -29 11 -26 6 9 -13 -99
-18 -145 -5 -43 11 -194 9 -198 -3 -5 -14 -89 -15 -97 -1 -4 6 -16 8 -28 4
-12 -4 -53 -8 -92 -9 -38 -1 -77 -5 -85 -8 -8 -3 -42 -9 -75 -12 -78 -8 -95
-11 -125 -18 -14 -4 -47 -9 -73 -11 -54 -4 -69 -13 -47 -26 10 -7 11 -10 3
-10 -22 0 -14 -18 9 -23 23 -4 23 -4 1 -6 -12 0 -29 6 -38 15 -16 16 -30 12
-30 -9 -1 -7 -7 -11 -15 -9 -12 3 -13 1 -2 -9 15 -16 16 -29 1 -29 -18 0 -41
-28 -28 -35 6 -4 9 -16 6 -26 -3 -10 1 -24 9 -30 12 -9 12 -15 2 -28 -12 -14
-11 -14 4 -2 10 7 15 18 11 23 -3 6 0 8 8 6 8 -3 13 -11 11 -17 -1 -6 1 -10 5
-10 22 4 35 -2 30 -13 -3 -8 5 -14 19 -14 16 -1 24 4 24 15 0 13 2 14 9 1 6
-8 8 -17 6 -20 -1 -3 9 -14 23 -24 16 -12 23 -14 18 -5 -4 8 5 1 19 -16 15
-16 24 -25 21 -18 -4 6 -2 14 3 17 5 3 12 -1 15 -9 4 -10 14 -14 31 -11 13 3
24 2 24 -2 -3 -21 5 -32 45 -53 30 -15 42 -28 39 -38 -4 -14 -4 -14 6 -1 7 9
14 11 19 5 4 -6 20 -12 37 -14 26 -3 28 -1 16 13 -12 14 -12 16 3 10 10 -4 14
-13 11 -24 -7 -22 19 -44 53 -45 17 0 26 -5 24 -13 -1 -8 7 -16 18 -19 11 -3
20 -9 20 -13 0 -5 8 -7 18 -6 9 2 23 -4 30 -13 8 -9 10 -10 6 -2 -5 10 -3 12
5 7 7 -5 10 -15 6 -23 -5 -14 -3 -14 12 -2 11 9 14 10 9 2 -4 -8 -2 -13 4 -13
6 0 8 -4 5 -10 -3 -6 1 -7 9 -4 9 3 16 1 16 -4 0 -6 14 -9 30 -7 17 2 30 -1
30 -6 0 -6 -4 -7 -10 -4 -6 3 -7 -1 -4 -9 3 -9 10 -14 14 -11 5 3 11 1 15 -5
4 -6 11 -8 16 -5 5 4 9 1 9 -4 0 -6 6 -10 13 -9 6 2 11 -3 9 -11 -2 -8 3 -11
13 -8 8 4 15 3 15 -2 0 -5 16 -7 35 -4 36 5 40 -1 38 -56 -1 -8 2 -10 8 -4 12
12 59 4 59 -9 0 -6 9 -8 21 -5 15 4 19 2 15 -9 -3 -8 -2 -13 3 -10 5 3 14 -1
21 -9 7 -8 16 -12 21 -9 5 3 9 -2 9 -11 0 -9 5 -13 10 -10 6 3 10 2 10 -4 0
-5 9 -8 20 -6 11 2 19 -1 17 -8 -1 -7 5 -12 13 -12 8 0 18 -4 22 -10 4 -6 8
-2 8 8 0 10 5 15 10 12 6 -4 7 -13 1 -24 -7 -13 -5 -17 10 -18 10 -1 19 3 19
10 0 6 6 2 14 -8 8 -11 12 -23 10 -26 -2 -4 6 -5 18 -1 16 4 19 2 13 -8 -5 -9
-4 -11 4 -6 12 8 41 -16 41 -33 0 -6 5 -11 11 -11 5 0 8 4 5 9 -4 5 3 7 14 4
11 -3 17 -9 14 -14 -3 -5 2 -6 12 -2 13 5 15 2 10 -18 -3 -13 -3 -18 0 -11 6
13 44 17 44 4 0 -5 9 -19 20 -32 11 -13 20 -18 20 -12 0 7 5 12 11 12 5 0 8
-4 5 -8 -3 -5 2 -9 10 -9 9 0 13 6 10 14 -3 8 -1 11 4 8 6 -3 10 -12 10 -19 0
-7 12 -18 26 -24 15 -7 22 -17 18 -24 -5 -8 -2 -9 11 -5 11 5 22 1 30 -10 7
-9 20 -18 30 -19 13 -2 15 0 6 9 -6 6 -11 15 -11 21 0 5 12 -5 26 -22 15 -18
31 -32 37 -32 5 0 18 -9 27 -20 11 -13 21 -17 25 -10 3 5 11 10 16 10 6 0 7
-4 4 -10 -3 -5 1 -10 9 -10 9 0 16 -5 16 -11 0 -5 4 -8 9 -5 5 3 14 -1 21 -9
6 -7 19 -11 27 -8 11 4 14 2 9 -5 -4 -7 -1 -12 8 -12 9 0 16 -7 16 -15 0 -8 7
-15 16 -15 11 0 14 -6 10 -17 -5 -15 -4 -15 9 1 12 16 15 17 15 4 0 -10 8 -14
23 -13 12 1 31 -7 42 -18 11 -11 14 -16 6 -12 -10 6 -12 4 -6 -5 6 -10 11 -10
20 3 7 9 15 14 18 10 4 -3 2 -12 -5 -20 -6 -8 -7 -13 -2 -11 5 1 20 -4 34 -11
19 -11 25 -11 28 -2 3 8 9 4 16 -10 6 -12 21 -26 34 -30 15 -6 21 -5 17 1 -3
6 1 10 10 10 13 0 14 -4 4 -21 -7 -13 -7 -19 -1 -15 6 3 17 -3 25 -14 7 -11
17 -17 21 -13 10 11 37 12 30 2 -3 -5 0 -9 5 -9 6 0 11 -7 11 -15 0 -12 3 -12
18 3 11 9 17 21 14 26 -3 5 0 6 7 2 6 -4 9 -16 6 -26 -4 -12 1 -22 12 -29 17
-10 17 -10 -2 -11 -11 -1 -14 -4 -8 -7 10 -3 10 -10 2 -26 -9 -18 -9 -20 2 -9
16 14 43 16 34 2 -4 -6 -11 -8 -16 -5 -5 4 -9 -3 -9 -14 0 -12 -4 -21 -10 -21
-5 0 -10 -10 -9 -22 l0 -23 9 21 c5 12 13 25 19 29 13 8 13 8 2 -33 -6 -18 -6
-30 -1 -27 4 2 10 -5 14 -17 4 -16 -3 -31 -22 -52 -15 -16 -21 -26 -14 -22 15
9 15 5 1 -31 -5 -15 -7 -25 -4 -21 4 4 13 2 20 -5 9 -9 9 -17 -5 -39 -20 -34
-15 -88 9 -89 10 0 11 -2 4 -6 -14 -5 -18 -24 -5 -22 20 3 32 -2 26 -12 -4 -8
-9 -7 -16 2 -6 10 -7 4 -4 -18 3 -24 1 -30 -10 -26 -8 3 -14 0 -14 -6 0 -6 4
-11 9 -11 4 0 6 -12 3 -26 -3 -15 1 -29 8 -34 9 -6 8 -12 -7 -27 -14 -14 -19
-32 -19 -64 1 -40 3 -44 24 -42 17 2 22 -2 20 -15 -2 -9 -7 -20 -13 -24 -6 -5
-5 -8 3 -8 6 0 12 -4 12 -10 0 -5 -9 -10 -19 -10 -15 0 -19 -7 -19 -30 1 -17
3 -28 6 -25 5 5 31 -25 32 -37 0 -5 -7 -8 -15 -8 -8 0 -15 -7 -15 -15 0 -8 5
-14 12 -12 16 3 18 -51 1 -57 -7 -3 -13 -17 -13 -31 0 -17 -4 -24 -12 -19 -7
4 -8 3 -4 -5 4 -6 12 -9 17 -6 5 4 9 -1 9 -9 0 -11 -6 -13 -17 -9 -17 7 -17 5
-2 -17 10 -16 13 -32 8 -45 -10 -27 -11 -37 0 -31 10 7 29 -35 24 -51 -3 -7
-10 -13 -17 -13 -17 0 -14 -86 3 -103 10 -9 11 -8 6 6 -4 10 -2 17 4 17 6 0
10 -14 8 -33 -2 -33 -26 -49 -28 -18 0 12 -3 11 -9 -4 -12 -27 -12 -37 -1 -30
5 3 12 1 15 -4 4 -5 2 -12 -4 -16 -5 -3 -10 -12 -10 -18 0 -7 4 -6 10 3 7 11
10 11 10 2 0 -7 5 -10 10 -7 5 3 10 -1 10 -9 0 -9 -4 -16 -10 -16 -5 0 -10 -4
-10 -10 0 -5 6 -9 12 -7 7 1 14 -9 16 -23 3 -20 2 -22 -11 -11 -17 13 -18 3
-3 -31 12 -28 3 -63 -16 -62 -15 2 -17 -5 -14 -44 5 -45 19 -64 42 -55 19 7
26 -13 9 -27 -8 -7 -12 -16 -9 -21 3 -5 0 -9 -7 -9 -6 0 -9 8 -7 18 3 12 0 19
-9 19 -7 0 -12 -5 -10 -11 3 -6 0 -19 -5 -28 -7 -14 -5 -16 9 -11 17 6 17 5
-1 -15 -20 -23 -15 -59 6 -46 8 5 7 0 -2 -11 -8 -10 -10 -16 -3 -12 17 11 27
-12 12 -29 -10 -13 -10 -17 0 -23 10 -6 9 -12 -3 -24 -19 -18 -21 -31 -4 -21
8 5 9 0 6 -14 -4 -12 -2 -22 3 -22 5 0 9 -8 9 -17 0 -13 -2 -15 -8 -5 -6 9
-12 6 -20 -13 -10 -21 -8 -28 10 -45 18 -16 19 -22 8 -35 -11 -14 -11 -21 5
-47 10 -17 13 -28 7 -24 -8 4 -10 2 -6 -7 3 -8 -2 -17 -10 -20 -9 -4 -16 -11
-16 -17 0 -6 4 -8 10 -5 6 4 10 -8 10 -29 0 -20 -5 -36 -11 -36 -6 0 -1 -15
10 -34 26 -41 27 -56 3 -25 -15 17 -21 19 -27 9 -6 -9 -4 -11 5 -5 10 6 12 4
6 -11 -22 -58 -24 -151 -2 -115 13 21 26 11 26 -20 0 -28 -3 -31 -26 -26 -17
3 -22 1 -15 -6 5 -5 6 -19 2 -31 -10 -26 1 -77 13 -58 4 7 12 10 17 6 6 -4 6
-11 -2 -20 -10 -12 -9 -13 5 -8 9 3 16 12 16 20 0 8 5 14 10 14 6 0 10 -4 10
-10 0 -5 14 -8 30 -6 20 2 34 -2 40 -13 8 -13 9 -12 10 9 0 14 3 20 8 14 4 -7
27 -14 52 -18 29 -4 40 -3 30 3 -8 6 -18 7 -22 5 -4 -3 -5 2 -1 11 5 13 7 14
14 3 5 -7 9 -9 9 -5 0 4 9 3 19 -3 14 -7 22 -7 27 2 5 7 3 8 -7 3 -12 -8 -12
-6 0 8 13 17 26 24 18 10 -3 -5 1 -14 9 -21 12 -10 14 -10 14 2 0 10 6 13 15
10 8 -4 12 -11 8 -17 -3 -6 -1 -7 6 -3 6 4 9 12 6 17 -4 5 -1 17 5 26 11 17
11 17 6 0 -3 -11 -2 -15 4 -12 6 3 10 13 10 21 0 8 4 14 10 14 5 0 7 -7 4 -15
-6 -16 7 -21 20 -7 4 4 12 8 17 8 5 1 13 2 19 3 5 0 9 7 7 14 -1 6 5 11 13 10
10 -2 16 5 16 17 0 11 -4 20 -9 20 -5 0 -6 11 -3 25 3 14 9 36 12 50 5 19 2
25 -10 25 -20 0 -20 5 0 35 10 15 12 25 5 25 -6 0 -8 11 -4 30 4 21 2 30 -8
30 -10 0 -10 3 -1 12 16 16 15 23 -5 44 -16 16 -16 18 4 31 23 16 21 43 -4 43
-8 0 -11 5 -8 10 4 6 11 8 16 5 7 -5 14 39 10 67 0 4 -2 21 -3 37 -2 23 -6 30
-18 26 -11 -3 -16 1 -16 14 0 15 4 17 16 11 13 -7 16 -2 18 27 2 19 -2 40 -7
47 -10 12 -10 66 1 60 4 -2 9 0 13 6 3 5 1 10 -5 10 -6 0 -9 4 -6 8 3 4 1 25
-4 45 -5 23 -4 37 2 37 5 0 7 4 3 9 -3 5 -1 12 4 15 10 7 3 87 -10 101 -5 5
-9 14 -9 20 0 5 5 3 10 -5 8 -12 10 -12 11 5 0 11 2 28 4 38 2 9 -1 14 -6 11
-6 -3 -7 10 -3 34 4 23 1 48 -6 61 -18 34 -21 64 -6 58 8 -3 13 7 15 35 1 28
-2 38 -10 33 -8 -5 -8 -1 1 15 8 15 9 25 1 33 -7 7 -7 16 0 29 6 11 8 30 5 43
-3 13 -2 27 4 30 7 4 7 13 0 26 -6 11 -16 16 -22 13 -7 -4 -8 -3 -4 5 4 6 12
9 17 6 5 -4 9 4 9 17 0 13 -9 29 -20 36 -11 7 -20 17 -20 23 0 8 5 8 15 -1 12
-10 16 -9 21 5 4 10 1 21 -6 25 -17 11 -23 43 -6 37 13 -5 14 72 1 94 -5 8 -4
10 3 5 13 -8 17 25 5 37 -8 9 -11 107 -2 101 4 -2 9 9 11 26 2 16 0 26 -5 23
-5 -3 -6 10 -3 28 4 32 4 33 -10 15 -12 -17 -14 -17 -14 -4 0 9 5 20 10 23 6
4 8 11 5 16 -4 5 -3 9 2 9 13 0 9 128 -5 142 -14 14 -16 32 -2 23 6 -4 10 6
10 24 0 16 3 36 6 44 3 8 -1 21 -9 29 -12 11 -12 19 -3 37 l12 22 27 -25 c16
-15 28 -20 31 -13 3 9 7 9 13 1 10 -15 44 -21 60 -11 6 4 15 2 19 -4 4 -8 3
-9 -4 -5 -8 5 -12 0 -12 -13 0 -15 6 -19 27 -16 34 3 77 -23 64 -39 -7 -8 -5
-12 7 -13 35 -3 57 -11 55 -21 -4 -17 23 -21 50 -7 13 7 30 9 36 6 7 -5 2 -12
-14 -21 l-26 -14 23 -12 c18 -10 24 -9 34 5 11 14 14 13 23 -11 5 -14 15 -29
22 -34 8 -5 10 -3 4 7 -7 11 -5 11 11 -1 10 -8 21 -16 23 -17 2 -1 -1 -9 -8
-16 -9 -12 -5 -14 29 -10 24 3 40 1 40 -6 0 -6 8 -7 18 -4 14 6 15 4 4 -9 -10
-13 -10 -18 -1 -24 8 -4 9 -3 5 4 -14 23 16 11 45 -17 16 -16 29 -24 29 -18 1
7 6 5 13 -4 7 -9 18 -14 26 -11 8 3 20 -4 28 -14 8 -11 17 -19 21 -19 4 0 6
-3 5 -7 -2 -4 6 -5 17 -3 12 2 18 0 15 -4 -2 -5 22 -21 55 -35 33 -15 60 -32
60 -37 0 -6 4 -8 9 -4 5 3 17 -2 25 -11 15 -14 16 -14 16 2 0 16 1 16 13 2 6
-9 31 -26 54 -38 49 -25 68 -45 58 -61 -6 -8 -2 -8 14 0 17 10 22 9 27 -3 3
-8 12 -17 20 -20 10 -4 13 -2 8 7 -5 8 -2 7 9 -2 14 -11 17 -11 18 0 0 8 4 4
9 -9 7 -17 15 -21 36 -18 21 4 24 3 14 -9 -10 -12 -7 -17 15 -25 33 -13 38
-13 30 0 -3 6 -1 10 6 10 6 0 9 -8 6 -20 -3 -11 0 -18 7 -17 6 1 10 -3 9 -10
-2 -8 6 -9 30 -2 17 5 32 9 33 9 1 0 0 -15 -2 -32 -3 -24 -1 -29 6 -18 9 14
14 7 11 -13 -1 -4 8 -3 19 3 13 7 20 7 20 0 0 -5 -5 -10 -12 -10 -6 0 -9 -2
-6 -5 9 -10 38 7 31 18 -3 6 -1 7 6 3 6 -4 9 -12 6 -17 -8 -12 21 -12 44 0 13
8 18 6 18 -5 0 -9 -6 -13 -16 -9 -9 4 -6 -4 8 -19 13 -14 27 -23 31 -21 4 3
13 -2 20 -10 6 -7 19 -11 27 -8 12 5 15 2 10 -10 -4 -12 -2 -14 10 -10 10 4
14 2 9 -5 -3 -6 -1 -14 5 -18 7 -4 9 -3 5 4 -3 6 -2 13 4 17 5 3 10 1 10 -5 0
-6 4 -8 10 -5 6 3 15 3 22 -1 8 -5 6 -10 -8 -15 -16 -6 -16 -8 -2 -8 9 -1 24
-11 34 -23 12 -17 15 -18 10 -5 -4 14 -2 18 12 15 9 -2 16 -10 15 -16 -2 -7 4
-12 12 -12 8 0 15 -5 15 -12 0 -9 3 -9 11 -1 8 8 17 4 34 -15 21 -24 24 -25
30 -9 4 9 15 17 24 16 10 0 11 -2 4 -6 -20 -8 -16 -51 5 -49 9 0 16 -4 15 -10
-1 -6 4 -11 12 -11 8 0 12 4 9 9 -3 4 0 8 5 8 6 0 11 -5 11 -11 0 -5 5 -7 10
-4 6 3 10 2 10 -3 0 -5 10 -8 22 -8 13 1 23 -3 24 -9 2 -21 16 -45 24 -40 5 3
16 -2 24 -11 12 -11 16 -12 16 -2 1 8 7 6 18 -7 9 -11 23 -20 30 -21 28 -2 33
-4 28 -12 -3 -5 0 -9 7 -9 7 0 21 -4 31 -9 14 -5 17 -4 11 5 -4 8 4 6 19 -4
30 -20 34 -30 9 -20 -12 4 -14 3 -8 -3 6 -5 27 -15 48 -22 20 -6 37 -16 37
-21 0 -5 7 -9 15 -9 8 0 15 -6 15 -12 0 -10 2 -10 9 0 4 7 20 15 34 16 15 2
24 -1 21 -5 -3 -5 -13 -9 -23 -9 -10 0 -18 -7 -18 -16 0 -12 9 -15 39 -11 21
2 38 0 38 -4 0 -5 -4 -9 -10 -9 -6 0 -2 -8 8 -18 9 -10 19 -15 22 -11 3 4 15
-1 27 -11 12 -9 19 -21 15 -25 -4 -4 3 -5 16 -2 12 3 28 -1 36 -8 7 -8 25 -17
40 -21 29 -7 32 -14 14 -34 -11 -12 -10 -12 5 -1 15 12 21 9 18 -11 0 -5 6 -8
15 -8 9 0 12 5 8 12 -4 7 2 4 14 -6 20 -17 22 -18 22 -2 0 9 5 14 10 11 6 -4
8 -11 5 -16 -4 -5 -1 -9 4 -9 6 0 11 -6 11 -14 0 -8 5 -18 12 -22 7 -4 8 -3 4
4 -12 19 5 14 40 -13 39 -30 63 -34 43 -7 -7 9 4 0 24 -20 21 -21 43 -38 48
-38 6 0 7 -5 3 -12 -5 -7 -3 -8 5 -4 7 5 22 0 34 -11 19 -15 20 -16 8 0 -7 9
-9 17 -3 17 13 0 33 -25 26 -33 -3 -3 3 -3 15 0 12 3 21 1 21 -6 0 -6 8 -11
18 -11 19 0 55 -34 65 -60 3 -10 6 -10 6 -2 1 16 61 -13 61 -29 0 -6 5 -7 11
-3 8 5 8 9 -1 14 -8 5 -9 10 -2 14 6 3 13 -3 17 -14 6 -19 16 -24 42 -21 7 1
10 -7 8 -20 -2 -12 -2 -19 2 -16 3 4 14 2 24 -4 15 -8 19 -6 19 8 0 15 2 15 9
3 6 -8 8 -17 6 -20 -4 -7 18 -25 30 -25 6 0 15 3 21 7 7 5 10 -1 9 -16 -2 -17
1 -23 13 -21 10 1 25 -4 34 -12 9 -8 21 -12 26 -9 6 3 13 -1 16 -10 3 -8 10
-12 16 -9 5 3 10 -2 10 -11 0 -10 3 -14 7 -11 3 4 12 2 19 -3 6 -6 18 -9 25
-8 8 2 13 -2 12 -9 -2 -7 7 -10 23 -7 14 3 23 1 21 -3 -3 -4 5 -8 17 -8 18 0
22 5 19 20 -4 19 -3 19 10 3 9 -12 17 -14 24 -7 8 8 13 7 18 -2 6 -8 4 -10 -5
-4 -8 5 -11 4 -6 -3 7 -12 24 -8 74 20 40 22 48 23 32 3 -11 -13 -10 -14 5 -9
12 5 16 4 11 -4 -3 -6 -2 -13 3 -17 6 -3 8 3 6 14 -3 16 1 19 21 15 33 -6 48
4 33 22 -6 8 -8 14 -3 15 37 4 52 3 70 -8 27 -15 34 -9 28 24 -4 20 -1 24 11
20 9 -4 15 -1 15 8 0 8 -5 14 -11 12 -6 -1 -13 3 -16 10 -3 7 3 9 16 6 12 -3
21 -1 21 6 0 6 -4 11 -10 11 -5 0 -10 6 -10 14 0 8 -10 22 -22 30 -21 15 -23
15 -30 -4 -6 -17 -11 -19 -28 -10 -11 6 -20 18 -20 26 0 8 -4 13 -9 10 -5 -4
-7 3 -4 14 4 13 0 20 -9 20 -8 0 -23 9 -33 20 -10 11 -28 20 -39 20 -15 0 -17
-3 -8 -9 11 -7 11 -9 -1 -14 -16 -6 -37 10 -37 28 0 5 -9 16 -20 23 -17 10
-20 10 -20 -3 0 -8 -6 -15 -13 -15 -17 0 -52 38 -44 47 12 11 -47 41 -60 31
-8 -6 -18 -3 -31 10 -11 11 -24 16 -29 11 -12 -12 -34 5 -36 29 -1 12 -5 22
-11 22 -5 0 -15 8 -22 18 -13 16 -13 16 -14 0 0 -10 -4 -18 -10 -18 -5 0 -6 8
-3 17 6 16 5 16 -10 4 -14 -11 -17 -11 -21 0 -14 48 -17 51 -36 46 -11 -3 -18
0 -17 5 1 6 -4 13 -10 15 -7 3 -13 -2 -13 -9 0 -19 -43 -16 -48 3 -3 11 -1 11
8 -1 10 -13 11 -13 8 0 -3 8 -15 17 -29 21 -13 4 -18 7 -11 8 6 1 12 6 12 11
0 6 -8 10 -17 8 -12 -2 -17 2 -15 12 2 8 0 12 -4 8 -4 -4 -14 -2 -22 5 -13 9
-14 9 -8 -1 5 -8 -1 -12 -21 -11 -25 0 -26 1 -8 9 11 5 16 9 10 10 -31 5 -48
9 -53 15 -4 3 6 4 21 1 38 -7 34 7 -10 28 -36 17 -38 17 -51 -1 -13 -17 -14
-17 -28 2 -8 11 -18 19 -22 18 -4 -1 -6 6 -4 16 2 10 -4 21 -13 25 -10 4 -14
2 -9 -5 4 -8 0 -7 -15 0 -14 8 -21 8 -21 1 0 -5 -4 -10 -10 -10 -5 0 -10 12
-10 27 0 25 -1 26 -13 8 -13 -17 -15 -17 -35 3 -12 12 -22 29 -22 37 0 9 -9
15 -24 15 -14 0 -28 5 -32 12 -5 8 -1 9 12 4 18 -7 18 -6 2 10 -14 15 -20 15
-33 4 -9 -7 -15 -9 -13 -4 2 5 0 9 -3 9 -3 0 -13 6 -22 14 -14 11 -17 11 -17
0 0 -11 -2 -11 -9 1 -6 8 -7 18 -5 22 3 5 2 7 -3 6 -4 -1 -18 3 -30 10 -13 7
-23 9 -23 4 0 -5 -7 -9 -16 -9 -11 0 -14 7 -9 25 5 20 3 23 -10 18 -9 -3 -14
-2 -11 3 3 5 -1 12 -10 15 -13 5 -15 2 -11 -14 3 -11 1 -18 -4 -14 -5 3 -9 13
-10 22 0 11 -3 12 -6 5 -2 -7 -11 -13 -19 -13 -8 0 -14 -5 -14 -11 0 -6 -7 -3
-16 5 -8 9 -20 16 -25 16 -5 0 -9 6 -9 14 0 8 -5 18 -12 22 -6 4 -8 3 -4 -4 3
-6 3 -13 -2 -16 -4 -2 -9 4 -9 15 -1 10 2 19 8 19 5 0 9 5 9 10 0 6 -7 10 -15
10 -8 0 -15 5 -15 11 0 5 -4 8 -9 4 -5 -3 -12 -1 -16 5 -3 5 -11 10 -17 10 -7
0 -6 -6 2 -15 17 -21 0 -18 -27 4 -24 20 -32 38 -12 25 7 -4 6 2 -2 17 l-12
24 -10 -23 c-14 -31 -29 -28 -17 4 6 15 6 23 1 19 -5 -3 -12 -1 -15 3 -6 10
-36 9 -55 -2 -8 -5 -19 -2 -29 9 -10 10 -12 15 -5 11 6 -3 14 -2 17 3 7 11
-22 23 -35 15 -5 -3 -9 0 -9 7 0 7 8 9 21 6 16 -4 18 -3 8 9 -13 16 -39 19
-39 4 0 -5 -5 -10 -11 -10 -5 0 -8 4 -4 9 3 5 1 12 -5 16 -5 3 -10 -1 -10 -9
0 -22 -16 -20 -52 5 -18 13 -26 24 -19 28 8 5 6 13 -4 27 -13 17 -14 17 -15 2
0 -24 -17 -23 -32 2 -9 13 -19 18 -35 14 -18 -5 -23 -2 -23 12 0 16 -2 17 -10
4 -7 -11 -10 -7 -10 18 0 22 -5 32 -16 32 -8 0 -13 -4 -10 -8 2 -4 -4 -9 -15
-9 -10 -1 -20 5 -20 13 -3 30 -4 34 -13 33 -5 0 -12 4 -15 9 -3 5 -21 17 -38
26 -25 12 -31 13 -27 3 3 -8 -2 -14 -11 -14 -9 0 -21 10 -25 22 -10 27 -40 41
-40 20 0 -19 -10 -19 -39 1 -15 11 -21 23 -18 35 3 11 1 17 -3 14 -5 -3 -12 0
-17 7 -9 15 -35 17 -44 5 -4 -5 -15 1 -26 12 -11 12 -27 19 -35 16 -13 -5 -47
22 -40 32 7 10 0 33 -9 28 -6 -4 -17 1 -24 11 -13 18 -14 17 -8 -6 5 -25 5
-25 -11 -5 -10 11 -15 14 -11 8 4 -9 1 -11 -9 -7 -9 3 -16 15 -16 25 0 22 -62
59 -68 40 -5 -16 -20 -13 -42 9 -12 12 -26 18 -33 13 -7 -4 -7 0 2 10 12 15
11 17 -7 17 -12 0 -28 10 -36 22 -13 18 -16 19 -16 5 0 -9 -7 -17 -15 -17 -9
0 -12 6 -9 15 4 8 2 15 -4 15 -6 0 -13 -6 -15 -12 -4 -8 -6 -7 -6 4 -1 9 7 18
17 20 12 3 8 7 -15 18 -18 8 -33 18 -33 22 0 16 -17 7 -26 -13 -9 -19 -12 -20
-24 -7 -8 8 -19 15 -25 16 -5 1 -10 12 -10 24 0 15 -7 22 -25 23 -14 2 -31 -2
-37 -7 -10 -8 -13 -4 -13 16 0 23 -2 25 -19 14 -15 -9 -23 -9 -35 1 -19 16
-22 56 -3 45 6 -4 8 -3 4 2 -4 4 -20 9 -35 10 -41 2 -42 3 -35 21 5 13 2 15
-15 11 -12 -4 -22 -2 -22 3 0 5 -6 9 -14 9 -8 0 -17 6 -19 13 -4 9 -6 9 -6 -1
-1 -9 -12 -5 -32 12 -17 14 -38 26 -47 26 -15 0 -15 -2 -2 -10 13 -8 12 -10
-2 -10 -12 0 -18 8 -18 21 0 13 4 18 13 13 8 -5 8 -3 -2 9 -7 9 -17 14 -22 11
-5 -3 -9 0 -9 5 0 6 -5 11 -11 11 -6 0 -8 -7 -5 -16 4 -10 2 -14 -6 -11 -7 2
-12 9 -11 15 2 6 -8 5 -24 -3 -31 -16 -63 -2 -63 29 0 14 -3 16 -13 7 -10 -8
-14 -7 -14 4 0 8 4 15 9 15 4 0 8 5 8 10 0 6 -7 10 -15 10 -8 0 -15 5 -15 10
0 6 -6 10 -14 10 -8 0 -17 6 -19 13 -3 6 -6 2 -6 -11 -1 -13 -5 -20 -11 -17
-6 4 -7 11 -4 17 4 6 2 8 -3 5 -15 -10 -35 17 -27 37 3 9 1 16 -4 16 -6 0 -14
-9 -17 -20 -4 -11 -11 -18 -16 -15 -5 4 -5 14 1 25 8 16 7 18 -9 15 -15 -3
-18 0 -14 13 5 14 2 14 -18 -3 -13 -11 -21 -16 -17 -11 12 15 -11 46 -30 40
-15 -5 -15 -4 -1 5 9 6 26 9 37 6 15 -2 19 0 15 11 -3 9 1 14 12 14 10 0 14
-5 10 -12 -4 -7 0 -5 9 6 8 10 22 16 30 13 11 -4 13 -1 9 10 -5 13 -3 14 17 3
13 -7 20 -8 16 -1 -4 5 5 18 19 27 21 14 28 14 42 3 9 -8 14 -9 10 -3 -3 6 8
18 26 28 18 10 24 11 15 3 -10 -8 -18 -19 -18 -26 0 -6 9 -3 20 6 11 10 20 23
20 31 0 7 8 12 18 10 12 -2 16 3 14 17 -2 15 0 17 6 6 7 -9 15 -10 28 -4 11 5
29 8 42 7 18 -1 20 1 11 13 -7 7 -9 16 -5 20 3 3 6 2 6 -4 0 -16 28 -24 36
-11 4 6 3 8 -4 4 -6 -3 -13 -3 -16 2 -2 4 7 9 20 10 17 1 23 -2 19 -11 -4 -6
2 -1 13 12 18 23 59 40 47 20 -4 -5 1 -6 9 -3 19 7 21 20 4 27 -7 3 4 3 25 1
29 -3 36 -1 31 8 -4 7 3 4 17 -7 13 -11 18 -13 11 -4 -12 16 -7 29 10 29 5 0
7 -4 3 -9 -3 -5 0 -13 6 -17 7 -4 9 -3 6 3 -9 15 31 53 48 47 8 -4 12 -11 9
-18 -4 -6 10 6 31 27 40 40 51 44 58 25 3 -10 8 -10 18 1 12 12 12 13 0 6 -10
-6 -12 -4 -7 4 6 9 11 9 24 -1 12 -10 14 -10 8 0 -9 16 6 16 24 0 8 -7 7 -4
-3 8 -17 20 -17 21 13 19 22 -1 27 1 20 10 -8 9 -1 11 26 8 20 -2 33 0 30 6
-3 5 3 11 15 14 16 4 18 3 8 -9 -18 -22 -5 -16 24 10 14 13 23 27 19 32 -4 4
0 3 8 -2 23 -13 39 -13 34 0 -3 8 3 12 18 11 13 -1 29 5 37 12 7 8 20 12 27 9
13 -5 19 7 14 29 -1 5 9 1 22 -10 13 -11 17 -13 11 -5 -19 21 -16 32 6 20 16
-8 22 -6 30 7 6 10 11 12 11 6 0 -7 5 -13 11 -13 5 0 7 5 4 10 -3 6 1 10 10
10 10 0 13 5 9 13 -5 7 0 6 11 -3 17 -14 17 -13 11 10 -6 19 -5 21 3 10 9 -13
12 -12 26 5 15 20 15 20 9 0 -5 -18 -4 -18 14 3 12 13 23 18 27 12 4 -6 11 -5
19 3 8 6 12 15 10 18 -2 3 3 6 11 6 8 0 12 -4 9 -9 -3 -4 -1 -8 5 -8 5 0 13 9
16 21 6 17 9 18 23 7 13 -11 15 -10 9 4 -3 10 -3 17 1 16 4 -1 18 4 31 11 19
11 22 11 16 -1 -3 -7 0 -5 8 5 16 20 32 23 21 5 -6 -10 -5 -10 8 -1 8 7 19 9
23 5 5 -4 5 -2 2 4 -7 13 19 27 33 19 5 -3 12 0 16 6 5 8 3 9 -7 4 -11 -6 -12
-5 -2 5 10 11 15 11 29 -1 16 -13 16 -12 6 8 -11 19 -10 21 8 18 11 -2 26 3
34 11 10 9 16 10 18 2 3 -8 9 -8 24 1 15 10 15 11 2 7 -10 -3 -18 -1 -18 4 0
10 21 14 49 11 7 -2 10 2 6 8 -3 7 0 8 9 5 9 -3 16 -1 16 5 0 6 5 11 11 11 5
0 7 -5 3 -12 -5 -7 -3 -8 5 -4 7 5 10 14 7 21 -2 7 2 16 10 19 8 3 13 2 10 -3
-3 -5 5 -8 18 -7 13 0 24 3 24 6 -1 20 3 30 12 25 5 -3 15 3 22 14 12 20 13
20 26 -2 8 -13 11 -15 8 -4 -6 19 10 24 17 5 3 -8 6 -6 6 5 1 9 6 17 12 17 5
0 7 -6 4 -12 -4 -7 2 -3 12 8 11 13 28 21 44 20 18 -1 26 3 25 14 -1 9 13 18
37 24 20 5 37 14 37 20 0 6 5 4 10 -4 9 -13 12 -12 26 5 8 11 20 19 25 17 5
-1 9 2 9 8 0 5 8 10 18 10 14 0 15 -2 2 -10 -12 -7 -10 -9 7 -8 14 2 19 7 15
18 -5 13 -3 13 10 2 14 -11 16 -10 11 10 -3 16 -2 19 5 10 7 -11 10 -11 15 1
4 10 13 13 26 10 25 -6 54 14 44 31 -4 6 2 4 12 -4 17 -13 18 -13 13 1 -6 16
16 20 39 6 8 -5 9 0 5 15 -5 20 -3 21 10 10 13 -10 18 -10 30 1 21 22 57 39
68 32 6 -3 10 2 10 12 0 10 4 14 8 8 10 -15 35 -18 26 -4 -5 9 -2 10 9 6 9 -3
19 -2 22 4 4 5 11 6 17 3 7 -4 8 -2 4 5 -6 9 -12 9 -24 0 -15 -11 -15 -11 0 6
14 15 20 16 32 6 13 -11 17 -10 22 3 3 9 10 16 16 16 5 0 6 -5 2 -12 -5 -7 -3
-8 5 -4 7 5 10 15 6 24 -3 9 -3 13 1 9 4 -4 14 -1 23 6 14 11 14 10 2 -6 -12
-15 -12 -17 3 -11 9 3 16 10 16 16 0 5 4 7 9 4 5 -4 11 -1 13 6 2 6 12 12 21
14 9 1 14 -2 11 -8 -4 -6 2 -5 15 1 11 7 22 22 22 34 1 17 2 18 6 5 2 -10 9
-18 14 -18 6 0 8 4 5 8 -3 5 1 9 9 9 8 0 15 -4 15 -9 0 -5 5 -6 10 -3 6 4 8
11 4 17 -4 6 3 8 17 6 17 -2 24 2 23 12 -1 10 8 17 23 18 31 2 45 11 38 23 -3
5 1 6 9 3 9 -3 13 -11 10 -18 -3 -6 3 -1 14 11 15 17 22 19 32 10 10 -9 11 -9
5 2 -6 11 -4 13 9 8 9 -4 15 -3 12 2 -9 14 20 32 39 24 14 -5 16 -3 10 7 -6
10 -3 12 13 8 12 -4 25 -1 29 4 3 6 1 8 -5 4 -6 -3 -13 -2 -16 3 -7 10 13 9
30 -1 6 -4 21 6 33 22 12 17 27 30 33 30 7 0 4 -6 -7 -13 -14 -11 -15 -16 -5
-22 9 -6 11 -4 5 5 -6 10 -3 12 13 8 13 -4 20 -2 19 6 -1 6 8 11 20 10 12 0
20 3 17 7 -7 12 27 25 58 23 15 0 25 3 22 8 -3 4 -11 5 -17 1 -7 -4 -6 0 2 10
15 18 26 23 16 7 -3 -5 1 -10 10 -10 10 0 13 5 9 12 -5 7 -2 9 9 5 8 -3 21 1
28 9 9 12 15 12 27 2 9 -7 13 -8 10 -3 -4 6 -3 17 3 25 6 10 9 11 9 3 0 -7 5
-13 11 -13 5 0 8 4 4 9 -6 11 25 23 46 18 8 -2 11 -2 7 0 -16 9 -7 22 12 18
13 -3 18 0 14 7 -5 7 -2 9 9 5 11 -4 14 -2 11 8 -3 7 3 16 15 20 25 8 28 35 5
35 -11 0 -15 6 -11 20 6 23 3 24 -26 8 -21 -11 -21 -10 -7 8 8 10 20 23 25 27
6 5 -2 6 -17 3 -15 -3 -29 -2 -33 4 -4 6 -15 5 -30 -2 -19 -8 -22 -14 -14 -24
12 -15 4 -34 -14 -33 -9 0 -9 2 1 6 20 8 14 26 -8 20 -11 -3 -18 -1 -14 4 3 5
-5 9 -18 9 -13 0 -34 0 -48 1 -14 0 -26 -4 -28 -9 -1 -5 -16 -6 -33 -4 -23 3
-35 -2 -56 -24 -16 -17 -24 -22 -20 -11 5 14 2 16 -17 11 -13 -3 -27 -1 -31 5
-4 7 -12 8 -24 1 -10 -5 -21 -6 -25 -3 -3 3 -6 1 -6 -5 0 -7 5 -12 10 -12 6 0
10 -5 10 -11 0 -6 -7 -8 -15 -5 -9 3 -18 -1 -21 -9 -4 -11 -12 -12 -31 -4 -14
5 -28 7 -31 4 -3 -3 0 -5 6 -5 7 0 12 -3 12 -7 0 -5 -17 -7 -38 -7 -31 2 -46
-5 -73 -30 -19 -17 -52 -36 -74 -41 -30 -8 -39 -15 -37 -28 3 -20 -23 -23 -35
-3 -12 21 -51 2 -59 -29 -5 -20 -11 -24 -28 -20 -17 5 -18 4 -6 -4 13 -10 8
-15 -12 -12 -5 0 -8 -4 -8 -10 0 -5 -4 -8 -8 -5 -5 3 -21 -2 -36 -9 -25 -13
-27 -13 -22 0 6 17 -17 16 -50 -3 -12 -6 -24 -8 -28 -5 -3 3 -6 -3 -6 -14 0
-26 -41 -39 -53 -17 -13 22 -29 6 -17 -17 14 -24 -5 -26 -19 -1 -7 11 -10 12
-11 3 0 -7 -6 -11 -15 -7 -10 4 -15 -1 -15 -15 0 -11 -3 -18 -7 -16 -9 6 -34
-19 -27 -26 3 -2 -2 -7 -10 -10 -11 -4 -13 -1 -9 10 5 13 3 14 -16 4 -12 -7
-27 -10 -34 -8 -7 3 -1 9 13 15 14 6 19 11 12 11 -7 1 -22 -4 -33 -10 -17 -9
-18 -13 -7 -26 11 -14 10 -15 -10 -9 -17 6 -21 4 -16 -8 4 -12 2 -15 -9 -11
-9 4 -16 -1 -19 -13 -4 -13 -14 -19 -32 -19 -14 0 -23 3 -20 8 3 5 0 9 -5 9
-20 0 -26 -5 -23 -19 2 -9 -2 -12 -13 -7 -10 4 -14 2 -9 -5 4 -7 0 -9 -14 -5
-15 5 -22 2 -27 -14 -5 -16 -14 -20 -41 -18 -19 1 -34 6 -34 11 0 5 7 7 15 3
9 -3 15 0 15 10 0 11 -6 14 -16 10 -12 -5 -14 -1 -9 15 4 12 3 19 -1 16 -5 -3
-9 6 -9 19 0 13 4 24 9 24 5 0 6 3 2 7 -9 10 -37 13 -31 4 2 -4 -2 -8 -9 -8
-8 0 -13 7 -11 16 1 9 9 15 16 13 11 -3 11 -1 3 8 -9 9 -17 9 -34 0 -15 -8
-20 -8 -16 -1 4 6 0 11 -9 11 -12 0 -15 6 -10 20 5 15 2 20 -12 20 -15 0 -16
2 -3 10 11 7 7 10 -17 10 -17 0 -33 -3 -36 -7 -2 -5 -3 -3 -1 3 2 12 -30 44
-46 44 -5 0 -12 -5 -16 -12 -4 -7 -3 -8 4 -4 7 4 12 2 12 -3 0 -15 -13 -14
-29 2 -11 10 -13 10 -7 0 4 -7 2 -13 -4 -13 -16 0 -37 23 -33 36 4 13 -24 27
-38 18 -5 -3 -7 -10 -4 -15 9 -14 -5 -11 -22 6 -8 8 -19 13 -23 10 -5 -3 -7 3
-5 13 2 11 -3 19 -11 19 -8 0 -14 -5 -14 -10 0 -5 -6 -4 -14 2 -12 10 -13 8
-9 -10 4 -16 2 -20 -8 -17 -8 3 -15 10 -15 16 -1 7 -2 19 -3 27 -2 21 -31 19
-32 -2 0 -11 -3 -13 -6 -5 -6 15 -33 16 -33 1 0 -5 5 -7 10 -4 6 3 10 1 10 -5
0 -6 -12 -10 -27 -8 -20 2 -29 9 -31 26 -4 26 -19 29 -24 5 -3 -16 -4 -16 -18
-1 -14 15 -16 15 -34 0 -14 -13 -20 -14 -23 -4 -3 6 -10 9 -15 6 -6 -4 -8 -2
-4 4 3 6 2 13 -4 17 -6 4 -8 12 -4 18 3 7 -4 2 -15 -11 -21 -24 -41 -22 -41 3
0 7 -7 16 -16 19 -10 4 -13 2 -8 -7 5 -9 4 -9 -7 1 -18 17 -27 15 -32 -5 -4
-17 -5 -17 -6 0 0 9 -6 17 -12 17 -5 0 -7 -5 -4 -10 10 -16 -24 -24 -41 -9
-21 17 -55 22 -51 8 1 -6 -4 -14 -11 -16 -7 -3 -11 1 -10 7 2 7 -3 15 -11 18
-8 3 -11 0 -7 -7 4 -6 0 -11 -9 -11 -11 0 -15 5 -12 14 4 10 0 12 -14 9 -10
-3 -16 -9 -13 -14 3 -5 -2 -9 -11 -9 -9 0 -14 4 -10 9 3 5 1 12 -5 16 -5 3
-10 -1 -10 -9 0 -19 -5 -20 -30 -6 -14 8 -26 7 -40 -2 -19 -11 -24 -10 -45 14
-13 15 -25 22 -27 16 -3 -8 -11 -7 -28 2 -22 12 -23 11 -13 -1 10 -13 8 -15
-17 -15 -16 1 -35 7 -42 14 -6 6 -31 12 -55 12 -34 0 -41 -3 -37 -15 4 -10 0
-15 -11 -15 -9 0 -14 3 -11 8 2 4 -14 6 -37 5 -25 -1 -37 1 -29 6 9 5 -2 8
-28 8 -25 0 -46 6 -52 14 -8 11 -9 10 -4 -3 7 -22 -32 -26 -40 -4 -6 16 -105
19 -116 3 -7 -11 -78 -16 -78 -6 0 14 -34 19 -42 7 -6 -11 -8 -10 -8 0 0 10
-4 10 -16 -2 -18 -19 -38 -21 -28 -3 5 7 1 7 -10 -2 -14 -12 -19 -12 -25 -2
-7 10 -13 10 -30 2 -11 -7 -21 -9 -21 -5 0 3 -7 0 -16 -7 -14 -11 -18 -11 -29
4 -14 20 -34 23 -83 12 -27 -6 -31 -5 -26 8 7 18 -20 17 -38 -1 -15 -15 -45
-16 -53 -2 -3 6 -13 10 -21 10 -8 0 -12 -5 -9 -10 7 -11 -23 -9 -42 3 -9 6
-11 3 -7 -7 4 -11 0 -16 -11 -16 -14 0 -16 6 -11 35 4 20 2 44 -5 56 -8 16 -8
20 1 14 9 -6 9 -2 1 14 -8 13 -8 21 -2 21 7 0 7 9 1 25 -6 15 -6 26 0 30 6 4
9 26 8 51 -3 43 -11 56 -21 32 -4 -9 -6 -8 -6 2 -1 9 4 21 9 26 11 11 25 164
15 164 -3 0 -10 -10 -15 -22 -8 -21 -9 -20 -8 7 1 17 -2 37 -6 45 -4 8 0 6 8
-4 9 -11 16 -16 17 -10 6 58 4 104 -3 104 -5 0 -7 14 -4 31 4 27 2 30 -16 26
-11 -3 -17 -3 -14 0 3 4 -1 14 -10 24 -9 11 -11 19 -5 23 5 4 15 -3 22 -15 15
-30 31 -5 23 37 -3 18 -1 35 5 38 5 4 7 14 4 23 -5 12 -3 14 8 8 12 -8 12 -6
1 8 -8 9 -11 25 -7 37 4 12 2 20 -5 20 -6 0 -8 5 -5 10 3 6 -2 10 -12 10 -15
0 -15 2 -4 9 16 10 26 51 13 51 -14 0 -10 29 4 34 7 3 11 13 9 23 -2 10 -4 23
-4 28 -1 6 -6 3 -11 -5 -8 -13 -10 -13 -10 2 0 9 6 21 13 25 7 5 12 30 13 60
0 29 -4 49 -9 46 -5 -3 -4 4 2 16 7 12 8 27 4 34 -10 16 -10 38 0 60 6 13 3
17 -10 17 -12 0 -14 3 -6 8 14 9 14 51 0 69 -5 7 -6 17 -2 23 3 5 -2 10 -14
10 -10 0 -22 -6 -25 -12 -5 -10 -7 -10 -12 0 -3 6 -10 12 -15 12 -6 0 -7 -4
-4 -10 3 -5 3 -16 -1 -22 -6 -9 -10 -5 -14 11 -5 22 -7 22 -19 7z m-318 -262
c-4 -10 -9 -12 -15 -6 -12 12 -1 35 12 27 5 -3 6 -13 3 -21z m324 -126 c-3 -8
-6 -5 -6 6 -1 11 2 17 5 13 3 -3 4 -12 1 -19z m-317 -116 c0 -13 -12 -22 -22
-16 -10 6 -1 24 13 24 5 0 9 -4 9 -8z m57 -216 c-3 -8 1 -20 8 -26 8 -7 12
-17 9 -22 -8 -13 -32 33 -26 50 2 6 6 12 9 12 3 0 3 -6 0 -14z m-72 -6 c3 -5
1 -10 -4 -10 -6 0 -11 5 -11 10 0 6 2 10 4 10 3 0 8 -4 11 -10z m12 -96 c-9
-9 -28 6 -21 18 4 6 10 6 17 -1 6 -6 8 -13 4 -17z m357 -98 c-3 -8 -13 -17
-22 -21 -13 -5 -13 -2 3 15 21 24 26 25 19 6z m-334 -61 c-14 -17 -30 -20 -30
-5 0 6 7 10 15 10 8 0 15 5 15 12 0 6 3 8 6 5 4 -4 1 -13 -6 -22z m-32 -167
c-2 -6 -10 -14 -16 -16 -7 -2 -10 2 -6 12 7 18 28 22 22 4z m367 -87 c-3 -5
-1 -12 5 -16 12 -8 13 -25 1 -25 -10 0 -21 36 -13 44 9 9 14 7 7 -3z m3858
-16 c-3 -9 -8 -14 -10 -11 -3 3 -2 9 2 15 9 16 15 13 8 -4z m-4181 -69 c-3 -5
-9 -1 -12 10 -4 10 -5 23 -2 28 3 5 9 1 12 -10 4 -10 5 -23 2 -28z m1048 -36
c0 -5 -7 -10 -15 -10 -8 0 -15 5 -15 10 0 6 7 10 15 10 8 0 15 -4 15 -10z
m2678 1 c10 -6 8 -10 -9 -14 -26 -7 -34 -3 -24 12 7 13 15 14 33 2z m-3063
-11 c-27 -12 -43 -12 -25 0 8 5 22 9 30 9 10 0 8 -3 -5 -9z m455 6 c0 -11 -19
-15 -25 -6 -3 5 1 10 9 10 9 0 16 -2 16 -4z m295 -16 c3 -5 -1 -10 -10 -10 -9
0 -13 5 -10 10 3 6 8 10 10 10 2 0 7 -4 10 -10z m-2918 -26 c-3 -3 -12 -4 -19
-1 -8 3 -5 6 6 6 11 1 17 -2 13 -5z m5083 -18 c0 -3 -4 -8 -10 -11 -5 -3 -10
-1 -10 4 0 6 5 11 10 11 6 0 10 -2 10 -4z m-113 -52 c-3 -3 -12 -4 -19 -1 -8
3 -5 6 6 6 11 1 17 -2 13 -5z m-2946 -73 c0 11 2 11 6 0 5 -11 7 -11 14 0 7
11 9 10 9 -3 0 -9 4 -20 10 -23 6 -4 7 1 3 11 -5 14 -3 15 18 4 21 -12 22 -11
12 2 -10 12 -10 15 2 15 8 0 15 -4 15 -9 0 -4 5 -8 11 -8 5 0 7 5 3 12 -4 7
-3 8 5 4 6 -4 9 -12 6 -17 -4 -5 -1 -9 4 -9 6 0 11 5 11 11 0 5 5 7 10 4 6 -4
7 -11 3 -18 -3 -6 9 0 27 13 18 13 30 19 26 12 -5 -8 2 -11 23 -8 31 3 42 -8
19 -17 -10 -4 -10 -6 -1 -6 7 -1 17 8 23 18 9 19 32 22 46 8 12 -12 26 -8 18
5 -4 7 -3 8 5 4 6 -4 8 -12 5 -18 -5 -7 -2 -8 7 -2 18 10 118 13 125 3 2 -5
-5 -6 -16 -4 -11 2 -20 0 -20 -6 0 -12 34 -6 53 9 12 10 17 10 23 1 5 -8 3 -9
-6 -4 -9 5 -11 4 -6 -4 6 -9 11 -9 23 1 8 6 29 13 46 14 22 2 27 0 17 -6 -8
-6 -13 -10 -10 -11 3 0 13 -2 23 -4 9 -2 15 1 11 6 -3 5 0 9 5 9 6 0 11 -4 11
-9 0 -5 9 -11 20 -14 11 -3 18 -2 15 3 -8 13 26 21 40 10 6 -5 16 -6 20 -2 5
4 5 -2 1 -13 -5 -18 -4 -17 11 3 18 21 19 22 42 5 24 -16 24 -16 17 3 -5 15
-4 16 5 7 6 -6 18 -9 27 -6 11 5 13 3 7 -8 -7 -11 -6 -12 6 -2 16 13 33 6 42
-17 4 -12 6 -11 6 3 1 22 25 22 47 0 16 -16 16 -16 10 5 -5 13 -3 22 3 22 6 0
10 -3 8 -8 -1 -4 0 -7 3 -8 3 0 16 -7 30 -14 22 -11 23 -11 13 1 -10 12 -8 15
7 15 10 0 16 -4 14 -8 -3 -4 7 -8 21 -8 17 0 24 -4 19 -11 -4 -7 -1 -10 7 -7
8 3 13 10 12 16 -2 8 5 8 20 3 12 -5 21 -14 19 -21 -1 -6 2 -9 8 -5 6 3 8 11
5 16 -4 5 1 9 10 9 9 0 14 -4 11 -8 -3 -5 30 -8 74 -7 63 1 75 -2 61 -11 -14
-11 -12 -12 11 -10 15 2 25 0 23 -5 -3 -4 0 -11 6 -15 8 -4 9 -3 5 4 -4 7 -2
12 4 12 6 0 8 6 4 13 -4 6 5 1 19 -12 15 -14 30 -21 34 -18 3 4 1 7 -5 7 -7 0
-12 5 -12 11 0 8 5 8 15 -1 8 -7 22 -10 30 -6 9 3 13 2 10 -4 -3 -6 1 -10 9
-10 9 0 16 -6 16 -12 0 -9 3 -10 8 -2 4 6 17 13 30 17 20 5 21 3 11 -9 -7 -8
-8 -14 -3 -13 5 1 15 1 23 0 11 -1 11 -4 0 -18 -13 -16 -13 -16 10 0 23 16 26
16 43 0 26 -23 48 -25 41 -5 -3 10 6 4 21 -12 14 -16 26 -24 26 -18 0 7 5 12
11 12 5 0 7 -4 4 -10 -3 -5 -2 -10 3 -10 13 0 45 -30 65 -62 17 -27 17 -28 0
-28 -11 0 -14 -3 -8 -8 13 -9 13 -27 1 -39 -5 -5 -6 -3 -2 5 10 18 -1 15 -22
-6 -10 -10 -16 -24 -14 -32 3 -7 0 -10 -7 -6 -15 9 -14 -7 1 -22 7 -7 8 -12 2
-12 -6 0 -15 5 -22 12 -9 9 -12 9 -12 -1 0 -7 -4 -10 -9 -7 -4 3 -13 -6 -20
-20 -6 -14 -16 -22 -21 -19 -6 3 -13 -1 -16 -9 -3 -9 -10 -13 -15 -10 -5 3
-12 -1 -15 -10 -3 -8 -12 -12 -20 -9 -8 3 -14 -1 -14 -11 0 -10 -6 -13 -16 -9
-9 3 -21 -3 -30 -16 -8 -11 -22 -21 -30 -21 -16 0 -56 -20 -65 -34 -4 -5 -12
-5 -19 -1 -9 6 -11 4 -5 -5 6 -10 4 -12 -9 -7 -14 6 -16 3 -11 -16 6 -21 6
-21 -9 -3 -9 11 -16 14 -16 8 0 -7 -3 -11 -7 -10 -5 2 -27 -3 -50 -11 -31 -10
-43 -20 -43 -34 0 -16 -5 -18 -27 -13 -16 3 -23 3 -16 0 13 -6 6 -34 -9 -34
-5 0 -7 4 -4 9 3 5 0 11 -7 14 -14 5 -50 -17 -41 -26 3 -3 -8 -8 -25 -12 -17
-4 -31 -11 -31 -16 0 -5 -11 -9 -24 -9 -14 0 -28 -5 -31 -10 -4 -6 -11 -8 -16
-4 -6 3 -19 -2 -29 -11 -11 -10 -26 -15 -36 -11 -11 4 -24 -1 -36 -13 -10 -11
-25 -18 -33 -15 -9 4 -16 -3 -20 -19 -5 -19 -11 -23 -31 -19 -13 2 -31 -1 -39
-8 -8 -7 -15 -8 -15 -3 0 5 -9 9 -19 9 -11 0 -17 -4 -15 -8 3 -4 -6 -13 -20
-20 -18 -7 -23 -15 -16 -22 6 -8 3 -12 -11 -13 -14 -1 -19 3 -15 13 3 8 -1 14
-9 14 -8 0 -15 -5 -15 -11 0 -12 -64 -40 -82 -37 -7 2 -12 -5 -10 -14 3 -17
-15 -23 -65 -21 -7 1 -13 -3 -13 -8 0 -5 -10 -9 -23 -9 -13 0 -27 -4 -33 -8
-5 -5 -37 -17 -71 -28 -35 -10 -63 -23 -63 -27 0 -5 -5 -5 -10 -2 -6 3 -13 0
-16 -8 -3 -8 -15 -13 -28 -12 -13 2 -29 -1 -37 -6 -8 -5 -9 -9 -4 -9 6 0 3 -4
-5 -10 -9 -5 -19 -5 -26 1 -7 6 -22 6 -40 -1 -23 -9 -25 -13 -14 -20 13 -9 13
-10 0 -11 -118 -7 -110 -6 -110 -24 0 -8 -5 -15 -11 -15 -5 0 -7 5 -3 12 5 8
2 9 -10 5 -10 -4 -27 -7 -37 -7 -11 0 -17 -4 -14 -10 3 -5 2 -10 -4 -10 -6 0
-8 12 -4 30 3 18 1 30 -5 30 -5 0 -13 7 -16 16 -3 8 -2 13 3 10 4 -3 8 8 9 25
1 25 -2 29 -19 24 -15 -5 -19 -2 -19 14 0 14 6 21 20 21 17 0 19 7 18 73 -1
39 -6 78 -11 85 -5 6 -6 12 -2 12 4 0 2 7 -5 15 -11 14 -7 19 13 16 9 -1 8 28
-2 54 -4 10 -3 32 3 48 9 22 8 30 -4 37 -12 7 -12 12 -2 22 19 19 14 42 -14
55 -23 11 -24 10 -20 -10 3 -12 3 -16 0 -9 -3 6 -10 10 -15 7 -5 -4 -6 2 -2
11 5 13 3 15 -7 9 -8 -5 -11 -4 -6 3 6 10 36 9 55 -2 13 -8 28 16 24 39 -1 11
-7 44 -13 74 -9 42 -9 56 1 61 8 6 10 25 6 64 -3 33 -1 58 5 62 6 4 6 10 -1
17 -13 13 -15 51 -3 43 5 -3 6 8 4 24 -3 20 -8 27 -18 23 -11 -4 -12 0 -6 18
5 13 7 30 4 38 -3 8 0 11 7 7 7 -5 11 2 11 19 0 14 -4 24 -9 21 -4 -3 -6 6 -3
19 5 27 13 30 43 15 10 -6 19 -8 19 -6 0 3 -12 12 -27 20 l-28 16 25 -3 c14
-1 31 -10 39 -21 13 -17 15 -17 23 -1 6 9 7 19 4 22 -3 4 -6 1 -6 -5 0 -7 -5
-12 -11 -12 -8 0 -7 5 2 16 12 14 14 14 26 -2 10 -14 13 -14 14 -3z m-955 -3
c4 -7 3 -8 -4 -4 -7 4 -12 2 -12 -3 0 -6 6 -11 13 -12 6 0 20 -2 30 -4 10 -2
27 6 39 18 11 12 18 17 15 11 -4 -7 1 -18 10 -25 15 -12 16 -12 11 3 -11 27 4
30 30 6 14 -13 22 -18 18 -11 -7 13 4 22 34 28 17 3 20 0 15 -18 -5 -19 -5
-20 5 -4 12 19 35 24 25 5 -4 -7 -1 -6 7 2 17 19 61 23 54 4 -3 -7 -1 -16 5
-19 5 -4 9 -3 8 2 -1 4 -1 15 0 23 1 13 2 13 11 0 9 -13 10 -13 10 0 1 9 6 6
16 -10 8 -14 13 -17 10 -7 -3 9 -1 17 4 17 6 0 10 -7 10 -16 0 -8 5 -12 11 -8
7 4 7 -1 -1 -16 -8 -15 -8 -20 -1 -16 7 5 11 -1 11 -14 0 -12 -3 -19 -7 -17
-5 3 -8 -10 -8 -29 0 -29 3 -33 20 -28 16 4 17 3 5 -5 -13 -10 -13 -11 0 -11
13 0 13 -1 0 -10 -9 -6 -17 -5 -22 3 -4 7 -8 -5 -8 -27 0 -29 3 -37 14 -33 8
3 17 -1 20 -9 3 -9 1 -12 -4 -9 -6 3 -10 2 -10 -4 0 -5 8 -12 19 -16 13 -4 18
-14 17 -37 -1 -17 -6 -33 -12 -35 -6 -2 -9 -16 -6 -31 5 -25 4 -26 -12 -9 -23
22 -29 22 -16 -2 12 -23 13 -34 3 -28 -5 3 -8 -9 -7 -26 0 -17 7 -33 14 -35 7
-3 10 0 6 6 -3 6 -2 13 4 17 5 3 10 -3 10 -14 0 -11 -8 -25 -17 -30 -10 -6
-12 -11 -5 -11 21 0 13 -20 -9 -20 -12 0 -17 -4 -13 -11 3 -6 15 -9 25 -6 23
6 24 1 5 -19 -11 -10 -15 -11 -19 -1 -2 6 -4 -2 -4 -20 0 -18 4 -30 9 -27 13
8 9 -31 -4 -46 -9 -9 -5 -9 13 2 24 15 25 15 25 -7 0 -13 -3 -22 -8 -19 -4 3
-16 -3 -26 -12 -24 -20 -19 -66 7 -57 11 4 8 -2 -8 -20 -26 -28 -21 -38 6 -12
8 9 18 13 22 9 3 -4 0 -9 -6 -11 -7 -3 -13 -9 -13 -15 0 -6 6 -8 14 -5 9 4 13
-4 12 -26 -1 -18 -6 -32 -11 -32 -16 0 -35 -15 -35 -27 0 -5 7 -8 15 -5 8 4
17 2 20 -3 4 -6 -4 -10 -17 -10 -21 -1 -21 -2 -5 -11 14 -8 16 -14 6 -25 -9
-11 -8 -15 5 -20 17 -7 20 -64 3 -64 -5 0 -7 9 -4 21 5 20 5 20 -14 4 -15 -15
-21 -15 -34 -5 -8 7 -15 21 -15 31 0 11 -6 19 -14 19 -8 0 -16 6 -19 14 -3 8
-15 12 -29 9 -17 -3 -26 2 -33 19 -6 13 -18 22 -27 22 -10 -1 -15 2 -12 7 3 5
-4 9 -16 9 -12 0 -18 -4 -15 -10 10 -16 -1 -12 -41 15 -20 14 -32 25 -25 25 6
0 11 4 11 8 0 5 -10 8 -22 8 -14 -1 -22 4 -20 12 1 8 -2 11 -8 7 -5 -3 -10 1
-10 9 0 9 -4 16 -9 16 -5 0 -7 -10 -4 -22 4 -21 3 -22 -10 -5 -8 9 -19 17 -26
17 -6 0 -11 5 -11 11 0 5 5 7 10 4 6 -3 10 -3 10 2 0 13 -59 43 -75 37 -7 -3
-11 -12 -8 -21 5 -13 3 -13 -16 -2 -11 8 -21 17 -21 22 0 4 -4 5 -10 2 -6 -4
-9 4 -7 17 1 14 -3 22 -10 20 -7 -1 -13 3 -13 8 0 7 -7 7 -20 0 -24 -13 -44
-4 -36 16 6 16 -10 19 -19 4 -12 -20 -47 10 -42 35 2 13 1 24 -2 23 -36 -4
-62 4 -59 18 2 11 -5 18 -19 19 -12 1 -20 -2 -17 -7 3 -4 0 -8 -5 -8 -6 0 -11
9 -11 20 0 21 -16 28 -22 9 -7 -20 -48 0 -48 23 0 12 -5 18 -12 15 -47 -19
-48 -19 -48 -2 0 13 6 16 21 12 13 -3 19 -1 16 6 -2 7 -16 13 -31 15 -18 2
-26 0 -21 -7 3 -6 0 -11 -8 -11 -7 0 -20 11 -27 25 -7 14 -19 25 -27 25 -7 0
-13 8 -13 18 -1 16 -1 16 -11 0 -14 -24 -38 -12 -34 18 1 13 -2 24 -7 24 -5 0
-8 -10 -6 -22 2 -15 -2 -23 -12 -23 -8 0 -14 8 -13 18 0 12 -4 16 -13 13 -8
-3 -14 -1 -14 5 0 6 -4 8 -9 4 -5 -3 -17 5 -25 17 -11 15 -12 24 -5 29 8 5 8
8 0 13 -16 11 -31 -2 -24 -21 4 -11 3 -14 -6 -9 -7 5 -10 14 -7 22 5 14 -9 27
-32 30 -6 1 -9 -2 -6 -8 4 -6 0 -14 -7 -19 -16 -10 -45 -12 -36 -2 4 3 2 12
-4 19 -7 8 -6 14 2 20 8 4 9 3 5 -4 -4 -7 -3 -12 2 -12 6 0 13 7 16 16 3 8 2
12 -3 9 -6 -3 -14 3 -20 12 -10 17 -10 17 -11 -2 -1 -16 -4 -14 -12 8 -11 31
-41 36 -58 10 -10 -16 -11 -16 -6 -1 3 12 1 15 -10 11 -9 -3 -14 1 -14 12 0 9
-6 15 -12 12 -7 -2 -18 8 -25 22 -8 18 -12 21 -12 9 -1 -15 -5 -16 -26 -6 -19
8 -22 14 -13 20 10 6 10 8 1 8 -7 0 -13 7 -13 15 0 8 -9 15 -20 15 -11 0 -20
-4 -20 -9 0 -4 -11 -6 -25 -3 -14 2 -25 9 -25 14 0 5 5 6 11 2 7 -4 10 -1 7 7
-3 8 -11 13 -19 11 -7 -2 -24 -1 -37 3 -20 5 -23 10 -17 32 5 23 4 25 -9 14
-17 -14 -43 -4 -67 25 -8 10 -9 15 -2 11 7 -4 17 0 23 10 10 15 11 15 6 1 -5
-18 30 -33 41 -16 3 6 1 8 -5 4 -6 -3 -14 -1 -18 5 -4 8 -3 9 4 5 7 -4 12 -2
12 4 0 7 5 6 14 -2 8 -7 12 -16 9 -20 -2 -5 -2 -8 2 -8 3 0 10 10 15 23 8 19
9 20 9 3 1 -20 1 -20 17 0 13 16 15 16 10 2 -3 -10 0 -20 6 -24 6 -4 8 -3 4 4
-3 6 -2 13 4 17 6 4 7 11 4 17 -4 7 -2 8 5 4 6 -4 9 -12 6 -17 -9 -13 9 -11
24 4 11 10 13 9 8 -5 -4 -10 -2 -18 3 -18 6 0 10 8 10 17 0 15 2 14 14 -3 8
-10 18 -16 22 -11 4 4 2 7 -4 7 -7 0 -12 5 -12 12 0 6 3 8 7 5 3 -4 12 -2 20
4 7 6 13 8 13 4 0 -4 8 -1 18 6 15 12 16 12 5 -2 -10 -12 -10 -19 2 -35 13
-18 14 -18 8 4 -3 13 -1 22 6 22 7 0 9 -6 5 -12 -4 -7 -4 -10 1 -6 4 4 17 2
29 -4 l21 -11 -20 23 -20 23 23 -12 c12 -6 22 -8 22 -2 0 14 34 8 47 -9 10
-12 14 -12 21 -2 5 7 18 14 30 17 16 3 19 0 15 -12 -5 -13 -3 -13 15 -4 25 13
35 14 28 2 -4 -5 1 -8 10 -7 8 1 19 8 23 15 6 10 12 9 25 -5 14 -13 20 -14 29
-4 9 10 9 11 0 6 -8 -5 -11 -2 -7 7 3 8 20 13 44 13 39 0 50 -8 30 -21 -5 -3
-10 -2 -10 3 0 6 -11 9 -24 8 -14 0 -22 -6 -19 -14 4 -9 9 -10 18 -2 10 8 15
8 20 0 5 -8 11 -7 22 1 12 10 17 10 25 -2 8 -11 9 -11 5 3 -3 9 1 19 9 22 9 3
12 1 9 -4 -3 -6 -1 -10 5 -10 6 0 8 -5 4 -12 -4 -7 -3 -8 5 -4 6 4 9 11 6 16
-3 5 -1 11 5 15 5 3 10 1 10 -6 0 -8 5 -7 17 2 15 12 16 12 10 -5 -7 -17 -6
-17 9 -5 18 15 94 20 94 6 0 -4 5 -5 10 -2 6 4 7 11 4 17 -4 7 -2 8 5 4 6 -4
9 -12 6 -17 -4 -5 5 -5 20 1 35 13 35 13 29 -7 -4 -11 -3 -14 3 -7 4 7 17 12
28 12 35 -1 46 2 41 10 -2 4 4 8 14 8 15 0 17 -3 7 -15 -10 -12 -9 -13 12 -1
14 7 46 13 72 14 40 1 45 -1 36 -13 -10 -12 -9 -12 10 -3 26 14 36 15 29 4 -3
-5 2 -9 10 -9 8 0 13 6 10 14 -4 10 -1 11 13 3 14 -7 20 -6 25 5 7 18 12 19
22 3z m44 -6 c0 -5 -7 -9 -15 -9 -8 0 -12 4 -9 9 3 4 9 8 15 8 5 0 9 -4 9 -8z
m1565 -2 c-3 -5 -12 -10 -18 -10 -7 0 -6 4 3 10 19 12 23 12 15 0z m-1209 -97
c-10 -10 -19 5 -10 18 6 11 8 11 12 0 2 -7 1 -15 -2 -18z m424 -104 c0 -11 -4
-19 -9 -19 -5 0 -7 9 -4 20 3 12 -1 22 -10 26 -9 3 -13 13 -10 25 5 18 7 17
19 -7 8 -14 14 -35 14 -45z m-1920 27 c0 -3 -4 -8 -10 -11 -5 -3 -10 -1 -10 4
0 6 5 11 10 11 6 0 10 -2 10 -4z m1846 -83 c2 -21 1 -24 -6 -13 -11 17 -14 57
-3 47 3 -4 8 -19 9 -34z m-2346 7 c0 -5 -5 -10 -11 -10 -5 0 -7 5 -4 10 3 6 8
10 11 10 2 0 4 -4 4 -10z m2081 -13 c-10 -9 -11 -8 -5 6 3 10 9 15 12 12 3 -3
0 -11 -7 -18z m33 -13 c3 -8 2 -12 -4 -9 -6 3 -10 10 -10 16 0 14 7 11 14 -7z
m1 -44 c3 -5 1 -10 -4 -10 -6 0 -11 5 -11 10 0 6 2 10 4 10 3 0 8 -4 11 -10z
m245 -130 c0 -5 -5 -10 -11 -10 -5 0 -7 5 -4 10 3 6 8 10 11 10 2 0 4 -4 4
-10z m-1415 -18 c-3 -3 -11 0 -18 7 -9 10 -8 11 6 5 10 -3 15 -9 12 -12z
m1082 -44 c-3 -8 -6 -5 -6 6 -1 11 2 17 5 13 3 -3 4 -12 1 -19z m313 -78 c0
-5 -5 -10 -11 -10 -5 0 -7 5 -4 10 3 6 8 10 11 10 2 0 4 -4 4 -10z m-267 -17
c-7 -2 -19 -2 -25 0 -7 3 -2 5 12 5 14 0 19 -2 13 -5z m-768 -13 c3 -6 -4 -10
-17 -10 -18 0 -20 2 -8 10 19 12 18 12 25 0z m685 -80 c0 -5 -4 -10 -10 -10
-5 0 -10 5 -10 10 0 6 5 10 10 10 6 0 10 -4 10 -10z m-575 -28 c-7 -8 -35 7
-35 18 0 6 7 6 20 -2 10 -7 17 -14 15 -16z m135 -17 c0 -8 -4 -15 -10 -15 -5
0 -10 7 -10 15 0 8 5 15 10 15 6 0 10 -7 10 -15z m-635 -5 c3 -5 1 -10 -4 -10
-6 0 -11 5 -11 10 0 6 2 10 4 10 3 0 8 -4 11 -10z m751 -105 c1 -8 -2 -15 -7
-15 -5 0 -9 10 -9 22 0 23 12 17 16 -7z m146 -50 c0 -5 -5 -11 -11 -13 -6 -2
-11 4 -11 13 0 9 5 15 11 13 6 -2 11 -8 11 -13z m68 -25 c0 -5 -8 -10 -17 -10
-15 0 -16 2 -3 10 19 12 20 12 20 0z m-400 -120 c0 -5 -5 -10 -11 -10 -5 0 -7
5 -4 10 3 6 8 10 11 10 2 0 4 -4 4 -10z m1900 -4 c0 -3 -4 -8 -10 -11 -5 -3
-10 -1 -10 4 0 6 5 11 10 11 6 0 10 -2 10 -4z m-710 -330 c0 -9 -7 -12 -21 -9
-16 4 -17 8 -7 14 19 13 28 11 28 -5z m97 -82 c-3 -3 -12 -4 -19 -1 -8 3 -5 6
6 6 11 1 17 -2 13 -5z m-367 -134 c0 -5 -2 -10 -4 -10 -3 0 -8 5 -11 10 -3 6
-1 10 4 10 6 0 11 -4 11 -10z m45 -10 c3 -5 1 -10 -4 -10 -6 0 -11 5 -11 10 0
6 2 10 4 10 3 0 8 -4 11 -10z m-33 -22 c-7 -7 -12 -8 -12 -2 0 6 3 14 7 17 3
4 9 5 12 2 2 -3 -1 -11 -7 -17z m694 4 c1 -7 0 -8 -3 -2 -2 5 -9 8 -14 4 -5
-3 -9 0 -9 6 0 15 23 7 26 -8z m-1039 -6 c-3 -8 1 -20 9 -27 8 -6 12 -14 9
-17 -9 -9 -33 31 -28 45 3 7 7 13 10 13 3 0 3 -6 0 -14z m-67 -16 c0 -5 -2
-10 -4 -10 -3 0 -8 5 -11 10 -3 6 -1 10 4 10 6 0 11 -4 11 -10z m650 -40 c0
-4 -7 -7 -15 -6 -23 3 -26 12 -5 13 11 1 20 -2 20 -7z m610 -14 c0 -11 -19
-15 -25 -6 -3 5 1 10 9 10 9 0 16 -2 16 -4z m-1250 -21 c0 -9 -6 -12 -15 -9
-8 4 -15 10 -15 15 0 5 7 9 15 9 8 0 15 -7 15 -15z m1355 -86 c-7 -10 -35 -1
-35 11 0 5 9 6 20 3 11 -3 17 -9 15 -14z m-938 -21 c-3 -8 -6 -5 -6 6 -1 11 2
17 5 13 3 -3 4 -12 1 -19z m1078 2 c3 -5 -1 -10 -9 -10 -9 0 -16 5 -16 10 0 6
4 10 9 10 6 0 13 -4 16 -10z m-1145 -10 c0 -5 -4 -10 -10 -10 -5 0 -10 5 -10
10 0 6 5 10 10 10 6 0 10 -4 10 -10z m-335 -56 c-9 -9 -18 -14 -21 -11 -9 9 6
27 22 27 13 0 13 -2 -1 -16z m1595 -41 c-1 -24 -2 -26 -11 -10 -5 9 -7 22 -4
27 10 17 15 11 15 -17z m141 -56 c-13 -13 -26 -3 -16 12 3 6 11 8 17 5 6 -4 6
-10 -1 -17z m-1759 4 c8 12 9 12 6 0 -6 -22 -28 -25 -27 -4 0 12 2 14 6 4 5
-11 7 -11 15 0z m-8 -76 c-4 -8 -10 -12 -15 -9 -11 6 -2 24 11 24 5 0 7 -7 4
-15z m1286 -13 c-7 -3 -19 3 -28 13 -16 15 -15 16 12 4 15 -7 23 -15 16 -17z
m724 -47 c-4 -8 -10 -12 -15 -9 -14 8 -10 24 6 24 9 0 12 -6 9 -15z m-550 -16
c-4 -7 -44 0 -44 7 0 2 11 3 24 2 14 -1 23 -5 20 -9z m-1084 -24 c0 -14 -2
-25 -4 -25 -2 0 -6 11 -8 25 -3 14 -1 25 3 25 5 0 9 -11 9 -25z m-326 -41 c4
-10 1 -14 -6 -12 -15 5 -23 28 -10 28 5 0 13 -7 16 -16z m2196 -54 c0 -5 -5
-10 -11 -10 -5 0 -7 5 -4 10 3 6 8 10 11 10 2 0 4 -4 4 -10z m-2230 -111 c0
-6 -4 -7 -10 -4 -5 3 -10 11 -10 16 0 6 5 7 10 4 6 -3 10 -11 10 -16z m2705
-179 c3 -5 1 -10 -4 -10 -6 0 -11 5 -11 10 0 6 2 10 4 10 3 0 8 -4 11 -10z
m-2705 -59 c7 -15 7 -19 -5 -17 -20 3 -28 13 -20 25 9 15 13 14 25 -8z m3050
-102 c0 -5 -4 -9 -10 -9 -5 0 -10 7 -10 16 0 8 5 12 10 9 6 -3 10 -10 10 -16z
m-2680 -38 c0 -6 -4 -13 -10 -16 -5 -3 -10 1 -10 9 0 9 5 16 10 16 6 0 10 -4
10 -9z m2220 -27 c0 -2 -7 -4 -15 -4 -8 0 -15 4 -15 10 0 5 7 7 15 4 8 -4 15
-8 15 -10z m-2252 -13 c-4 -19 -22 -18 -26 2 -2 7 4 14 13 14 9 0 15 -7 13
-16z m-303 0 c3 -5 1 -12 -5 -16 -5 -3 -10 1 -10 9 0 18 6 21 15 7z m3165 -3
c0 -4 -7 -8 -15 -8 -8 0 -15 4 -15 8 0 5 7 9 15 9 8 0 15 -4 15 -9z m-3090
-38 c0 -5 -2 -10 -4 -10 -3 0 -8 5 -11 10 -3 6 -1 10 4 10 6 0 11 -4 11 -10z
m3200 -61 c0 -11 -3 -11 -24 -3 -23 9 -20 23 4 17 11 -3 20 -9 20 -14z m131
-22 c-1 -12 -15 -9 -19 4 -3 6 1 10 8 8 6 -3 11 -8 11 -12z m-3441 -62 c0 -8
-4 -15 -8 -15 -5 0 -9 7 -9 15 0 8 4 15 9 15 4 0 8 -7 8 -15z m40 11 c0 -2 -7
-7 -16 -10 -8 -3 -12 -2 -9 4 6 10 25 14 25 6z m315 -35 c3 -5 2 -12 -3 -15
-5 -3 -9 1 -9 9 0 17 3 19 12 6z m3208 -21 c3 -11 1 -20 -4 -20 -5 0 -9 2 -9
4 0 2 -3 11 -6 20 -3 9 -2 16 4 16 5 0 12 -9 15 -20z m147 -50 c0 -5 -7 -10
-16 -10 -8 0 -12 5 -9 10 3 6 10 10 16 10 5 0 9 -4 9 -10z m233 -146 c-4 -12
-8 -13 -14 -3 -9 15 -2 32 11 24 5 -3 6 -13 3 -21z m-553 -10 c0 -2 -7 -4 -15
-4 -8 0 -15 4 -15 10 0 5 7 7 15 4 8 -4 15 -8 15 -10z m770 -94 c0 -13 -5 -18
-15 -14 -8 4 -15 12 -15 20 0 8 7 14 15 14 8 0 15 -9 15 -20z m-3780 -44 c0
-3 -4 -8 -10 -11 -5 -3 -10 -1 -10 4 0 6 5 11 10 11 6 0 10 -2 10 -4z m-343
-58 c-3 -8 -6 -5 -6 6 -1 11 2 17 5 13 3 -3 4 -12 1 -19z m-53 -334 c3 -8 2
-12 -4 -9 -6 3 -10 10 -10 16 0 14 7 11 14 -7z"/>
<path d="M3630 5308 c0 -4 4 -8 9 -8 6 0 12 4 15 8 3 5 -1 9 -9 9 -8 0 -15 -4
-15 -9z"/>
<path d="M3750 5296 c7 -7 13 -7 20 0 6 6 3 10 -10 10 -13 0 -16 -4 -10 -10z"/>
<path d="M4755 5200 c-3 -5 -1 -10 4 -10 6 0 11 5 11 10 0 6 -2 10 -4 10 -3 0
-8 -4 -11 -10z"/>
<path d="M3246 4597 c3 -10 9 -15 12 -12 3 3 0 11 -7 18 -10 9 -11 8 -5 -6z"/>
<path d="M2577 5313 c-4 -3 -7 -11 -7 -17 0 -6 5 -5 12 2 6 6 9 14 7 17 -3 3
-9 2 -12 -2z"/>
<path d="M2665 5309 c-4 -6 -5 -12 -2 -15 2 -3 7 2 10 11 7 17 1 20 -8 4z"/>
<path d="M2196 5295 c-11 -8 -15 -15 -9 -15 6 0 16 7 23 15 16 19 11 19 -14 0z"/>
<path d="M2243 5303 c-7 -2 -13 -9 -13 -15 0 -7 5 -7 13 1 8 6 18 7 22 3 5 -4
5 -1 1 6 -4 6 -8 12 -9 11 -1 0 -8 -3 -14 -6z"/>
<path d="M1933 5283 c0 -10 4 -10 16 -1 9 7 18 13 20 15 2 1 -5 1 -16 0 -11 0
-20 -7 -20 -14z"/>
<path d="M1351 5124 c0 -11 3 -14 6 -6 3 7 2 16 -1 19 -3 4 -6 -2 -5 -13z"/>
<path d="M2790 5040 c0 -5 5 -10 10 -10 6 0 10 5 10 10 0 6 -4 10 -10 10 -5 0
-10 -4 -10 -10z"/>
<path d="M1830 4865 c7 -9 15 -13 17 -11 7 7 -7 26 -19 26 -6 0 -6 -6 2 -15z"/>
<path d="M2530 4480 c0 -5 5 -10 11 -10 5 0 7 5 4 10 -3 6 -8 10 -11 10 -2 0
-4 -4 -4 -10z"/>
<path d="M2750 4338 c0 -4 4 -8 9 -8 6 0 12 4 15 8 3 5 -1 9 -9 9 -8 0 -15 -4
-15 -9z"/>
<path d="M2776 6715 c4 -8 10 -12 15 -9 14 8 10 24 -6 24 -9 0 -12 -6 -9 -15z"/>
<path d="M2761 6294 c0 -11 3 -14 6 -6 3 7 2 16 -1 19 -3 4 -6 -2 -5 -13z"/>
<path d="M2775 6230 c3 -5 8 -10 11 -10 2 0 4 5 4 10 0 6 -5 10 -11 10 -5 0
-7 -4 -4 -10z"/>
<path d="M2765 5940 c-3 -5 -1 -10 4 -10 6 0 11 5 11 10 0 6 -2 10 -4 10 -3 0
-8 -4 -11 -10z"/>
<path d="M2791 5794 c0 -11 3 -14 6 -6 3 7 2 16 -1 19 -3 4 -6 -2 -5 -13z"/>
<path d="M4118 5513 c7 -3 16 -2 19 1 4 3 -2 6 -13 5 -11 0 -14 -3 -6 -6z"/>
<path d="M1860 5498 c0 -4 7 -8 15 -8 8 0 15 4 15 8 0 5 -7 9 -15 9 -8 0 -15
-4 -15 -9z"/>
<path d="M2058 5503 c7 -3 16 -2 19 1 4 3 -2 6 -13 5 -11 0 -14 -3 -6 -6z"/>
<path d="M4478 5493 c7 -3 16 -2 19 1 4 3 -2 6 -13 5 -11 0 -14 -3 -6 -6z"/>
<path d="M1418 5483 c7 -3 16 -2 19 1 4 3 -2 6 -13 5 -11 0 -14 -3 -6 -6z"/>
<path d="M4410 5480 c0 -5 4 -10 9 -10 6 0 13 5 16 10 3 6 -1 10 -9 10 -9 0
-16 -4 -16 -10z"/>
<path d="M5190 5390 c0 -5 5 -10 11 -10 5 0 7 5 4 10 -3 6 -8 10 -11 10 -2 0
-4 -4 -4 -10z"/>
<path d="M5866 4963 c-6 -14 -5 -15 5 -6 7 7 10 15 7 18 -3 3 -9 -2 -12 -12z"/>
<path d="M5384 4779 c-3 -6 -2 -15 3 -20 5 -5 9 -1 9 11 0 23 -2 24 -12 9z"/>
<path d="M4946 4571 c-4 -5 -2 -12 3 -15 5 -4 12 -2 15 3 4 5 2 12 -3 15 -5 4
-12 2 -15 -3z"/>
<path d="M4810 4501 c0 -6 4 -13 10 -16 6 -3 7 1 4 9 -7 18 -14 21 -14 7z"/>
<path d="M4576 4393 c-6 -14 -5 -15 5 -6 7 7 10 15 7 18 -3 3 -9 -2 -12 -12z"/>
<path d="M4470 4349 c0 -5 5 -7 10 -4 6 3 10 8 10 11 0 2 -4 4 -10 4 -5 0 -10
-5 -10 -11z"/>
<path d="M4225 4271 c-3 -5 -2 -12 3 -15 5 -3 9 1 9 9 0 17 -3 19 -12 6z"/>
<path d="M4137 4233 c-4 -3 -7 -11 -7 -17 0 -6 5 -5 12 2 6 6 9 14 7 17 -3 3
-9 2 -12 -2z"/>
<path d="M3956 4155 c-9 -26 -7 -32 5 -12 6 10 9 21 6 23 -2 3 -7 -2 -11 -11z"/>
<path d="M3630 4020 c0 -5 5 -10 11 -10 5 0 7 5 4 10 -3 6 -8 10 -11 10 -2 0
-4 -4 -4 -10z"/>
<path d="M2790 3765 c0 -8 4 -15 10 -15 5 0 7 7 4 15 -4 8 -8 15 -10 15 -2 0
-4 -7 -4 -15z"/>
<path d="M3425 3580 c-3 -6 1 -7 9 -4 18 7 21 14 7 14 -6 0 -13 -4 -16 -10z"/>
<path d="M2770 3481 c0 -5 5 -13 10 -16 6 -3 10 -2 10 4 0 5 -4 13 -10 16 -5
3 -10 2 -10 -4z"/>
<path d="M4860 3171 c0 -6 5 -13 10 -16 6 -3 10 1 10 9 0 9 -4 16 -10 16 -5 0
-10 -4 -10 -9z"/>
<path d="M5305 2910 c3 -5 8 -10 11 -10 2 0 4 5 4 10 0 6 -5 10 -11 10 -5 0
-7 -4 -4 -10z"/>
<path d="M2781 2484 c0 -11 3 -14 6 -6 3 7 2 16 -1 19 -3 4 -6 -2 -5 -13z"/>
<path d="M5455 2440 c-3 -5 -1 -10 4 -10 6 0 11 5 11 10 0 6 -2 10 -4 10 -3 0
-8 -4 -11 -10z"/>
<path d="M6200 2440 c0 -5 5 -10 11 -10 5 0 7 5 4 10 -3 6 -8 10 -11 10 -2 0
-4 -4 -4 -10z"/>
<path d="M6655 2170 c3 -5 8 -10 11 -10 2 0 4 5 4 10 0 6 -5 10 -11 10 -5 0
-7 -4 -4 -10z"/>
<path d="M6810 2080 c20 -13 33 -13 25 0 -3 6 -14 10 -23 10 -15 0 -15 -2 -2
-10z"/>
<path d="M2781 1984 c0 -11 3 -14 6 -6 3 7 2 16 -1 19 -3 4 -6 -2 -5 -13z"/>
<path d="M7050 1951 c0 -5 5 -13 10 -16 6 -3 10 -2 10 4 0 5 -4 13 -10 16 -5
3 -10 2 -10 -4z"/>
<path d="M2780 1869 c0 -5 5 -7 10 -4 6 3 10 8 10 11 0 2 -4 4 -10 4 -5 0 -10
-5 -10 -11z"/>
<path d="M2797 1485 c-4 -8 -2 -17 3 -20 6 -4 10 3 10 14 0 25 -6 27 -13 6z"/>
</g>
</svg>
